<?xml version="1.0" encoding="ISO8859-1"?>
<svg xmlns="http://www.w3.org/2000/svg" xmlns:xlink="http://www.w3.org/1999/xlink" width="288px" height="252px" viewBox="0 0 288 252" version="1.1" id="Fig:dens">
  <metadata xmlns:gridsvg="http://www.stat.auckland.ac.nz/~paul/R/gridSVG/">
    <gridsvg:generator name="gridSVG" version="1.7-2" time="2021-05-21 23:15:11"/>
    <gridsvg:argument name="name" value="arrayQualityMetrics report for datos_crudos_microarrays/dens.svg"/>
    <gridsvg:argument name="exportCoords" value="none"/>
    <gridsvg:argument name="exportMappings" value="none"/>
    <gridsvg:argument name="exportJS" value="none"/>
    <gridsvg:argument name="res" value="72"/>
    <gridsvg:argument name="prefix" value="Fig:dens"/>
    <gridsvg:argument name="addClasses" value="FALSE"/>
    <gridsvg:argument name="indent" value="TRUE"/>
    <gridsvg:argument name="htmlWrapper" value="FALSE"/>
    <gridsvg:argument name="usePaths" value="none"/>
    <gridsvg:argument name="uniqueNames" value="TRUE"/>
    <gridsvg:separator name="id.sep" value="."/>
    <gridsvg:separator name="gPath.sep" value="::"/>
    <gridsvg:separator name="vpPath.sep" value="::"/>
  </metadata>
  <g transform="translate(0, 252) scale(1, -1)">
    <g id="Fig:densgridSVG" fill="none" stroke="rgb(0,0,0)" stroke-dasharray="none" stroke-width="0.75" font-size="12" font-family="Helvetica, Arial, FreeSans, Liberation Sans, Nimbus Sans L, sans-serif" opacity="1" stroke-linecap="round" stroke-linejoin="round" stroke-miterlimit="10" stroke-opacity="1" fill-opacity="0" font-weight="normal" font-style="normal">
      <g id="Fig:densplot_01.background.1">
        <rect id="Fig:densplot_01.background.1.1" x="0" y="0" width="288" height="252" transform="" fill="none" stroke="none" stroke-opacity="0" fill-opacity="0"/>
      </g>
      <g id="Fig:densplot_01.toplevel.vp.1" font-size="12">
        <g id="Fig:densplot_01.ylab.vp.1">
          <g id="Fig:densplot_01.ylab.1">
            <g id="Fig:densplot_01.ylab.1.1" transform="translate(16.31, 141.09)" stroke-width="0.1">
              <g id="Fig:densplot_01.ylab.1.1.scale" transform="scale(1, -1)">
                <text x="0" y="0" id="Fig:densplot_01.ylab.1.1.text" transform="rotate(-90)" text-anchor="middle" opacity="1" stroke="rgb(0,0,0)" fill="rgb(0,0,0)" stroke-opacity="1" fill-opacity="1" font-size="12" font-weight="normal" font-style="normal">
                  <tspan id="Fig:densplot_01.ylab.1.1.tspan.1" dy="4.31" x="0">Density</tspan>
                </text>
              </g>
            </g>
          </g>
        </g>
        <g id="Fig:densplot_01.figure.vp.1"/>
        <defs>
          <clipPath id="Fig:densplot_01.panel.1.1.vp.1.clipPath">
            <rect x="50.8" y="48.19" width="225.2" height="185.81" fill="none" stroke="none"/>
          </clipPath>
        </defs>
        <g id="Fig:densplot_01.panel.1.1.vp.1" clip-path="url(#Fig:densplot_01.panel.1.1.vp.1.clipPath)"/>
        <g id="Fig:densplot_01.strip.1.1.off.vp.1"/>
        <g id="Fig:densplot_01.strip.left.1.1.off.vp.1">
          <g id="Fig:densplot_01.ticks.left.panel.1.1.1">
            <polyline id="Fig:densplot_01.ticks.left.panel.1.1.1.1" points="50.8,59.6 45.13,59.6" stroke="rgb(0,0,0)" opacity="1" stroke-dasharray="none" stroke-width="0.75" stroke-opacity="1" fill="none"/>
            <polyline id="Fig:densplot_01.ticks.left.panel.1.1.1.2" points="50.8,90.19 45.13,90.19" stroke="rgb(0,0,0)" opacity="1" stroke-dasharray="none" stroke-width="0.75" stroke-opacity="1" fill="none"/>
            <polyline id="Fig:densplot_01.ticks.left.panel.1.1.1.3" points="50.8,120.79 45.13,120.79" stroke="rgb(0,0,0)" opacity="1" stroke-dasharray="none" stroke-width="0.75" stroke-opacity="1" fill="none"/>
            <polyline id="Fig:densplot_01.ticks.left.panel.1.1.1.4" points="50.8,151.38 45.13,151.38" stroke="rgb(0,0,0)" opacity="1" stroke-dasharray="none" stroke-width="0.75" stroke-opacity="1" fill="none"/>
            <polyline id="Fig:densplot_01.ticks.left.panel.1.1.1.5" points="50.8,181.98 45.13,181.98" stroke="rgb(0,0,0)" opacity="1" stroke-dasharray="none" stroke-width="0.75" stroke-opacity="1" fill="none"/>
            <polyline id="Fig:densplot_01.ticks.left.panel.1.1.1.6" points="50.8,212.57 45.13,212.57" stroke="rgb(0,0,0)" opacity="1" stroke-dasharray="none" stroke-width="0.75" stroke-opacity="1" fill="none"/>
          </g>
          <g id="Fig:densplot_01.ticklabels.left.panel.1.1.1">
            <g id="Fig:densplot_01.ticklabels.left.panel.1.1.1.1" transform="translate(39.47, 59.6)" stroke-width="0.1">
              <g id="Fig:densplot_01.ticklabels.left.panel.1.1.1.1.scale" transform="scale(1, -1)">
                <text x="0" y="0" id="Fig:densplot_01.ticklabels.left.panel.1.1.1.1.text" transform="rotate(-90)" text-anchor="middle" stroke="rgb(0,0,0)" opacity="1" fill="rgb(0,0,0)" stroke-opacity="1" fill-opacity="1" font-size="9.6" font-weight="normal" font-style="normal">
                  <tspan id="Fig:densplot_01.ticklabels.left.panel.1.1.1.1.tspan.1" dy="0" x="0">0.000</tspan>
                </text>
              </g>
            </g>
            <g id="Fig:densplot_01.ticklabels.left.panel.1.1.1.2" transform="translate(39.47, 90.19)" stroke-width="0.1">
              <g id="Fig:densplot_01.ticklabels.left.panel.1.1.1.2.scale" transform="scale(1, -1)">
                <text x="0" y="0" id="Fig:densplot_01.ticklabels.left.panel.1.1.1.2.text" transform="rotate(-90)" text-anchor="middle" stroke="rgb(0,0,0)" opacity="1" fill="rgb(0,0,0)" stroke-opacity="1" fill-opacity="1" font-size="9.6" font-weight="normal" font-style="normal">
                  <tspan id="Fig:densplot_01.ticklabels.left.panel.1.1.1.2.tspan.1" dy="0" x="0">0.005</tspan>
                </text>
              </g>
            </g>
            <g id="Fig:densplot_01.ticklabels.left.panel.1.1.1.3" transform="translate(39.47, 120.79)" stroke-width="0.1">
              <g id="Fig:densplot_01.ticklabels.left.panel.1.1.1.3.scale" transform="scale(1, -1)">
                <text x="0" y="0" id="Fig:densplot_01.ticklabels.left.panel.1.1.1.3.text" transform="rotate(-90)" text-anchor="middle" stroke="rgb(0,0,0)" opacity="1" fill="rgb(0,0,0)" stroke-opacity="1" fill-opacity="1" font-size="9.6" font-weight="normal" font-style="normal">
                  <tspan id="Fig:densplot_01.ticklabels.left.panel.1.1.1.3.tspan.1" dy="0" x="0">0.010</tspan>
                </text>
              </g>
            </g>
            <g id="Fig:densplot_01.ticklabels.left.panel.1.1.1.4" transform="translate(39.47, 151.38)" stroke-width="0.1">
              <g id="Fig:densplot_01.ticklabels.left.panel.1.1.1.4.scale" transform="scale(1, -1)">
                <text x="0" y="0" id="Fig:densplot_01.ticklabels.left.panel.1.1.1.4.text" transform="rotate(-90)" text-anchor="middle" stroke="rgb(0,0,0)" opacity="1" fill="rgb(0,0,0)" stroke-opacity="1" fill-opacity="1" font-size="9.6" font-weight="normal" font-style="normal">
                  <tspan id="Fig:densplot_01.ticklabels.left.panel.1.1.1.4.tspan.1" dy="0" x="0">0.015</tspan>
                </text>
              </g>
            </g>
            <g id="Fig:densplot_01.ticklabels.left.panel.1.1.1.5" transform="translate(39.47, 181.98)" stroke-width="0.1">
              <g id="Fig:densplot_01.ticklabels.left.panel.1.1.1.5.scale" transform="scale(1, -1)">
                <text x="0" y="0" id="Fig:densplot_01.ticklabels.left.panel.1.1.1.5.text" transform="rotate(-90)" text-anchor="middle" stroke="rgb(0,0,0)" opacity="1" fill="rgb(0,0,0)" stroke-opacity="1" fill-opacity="1" font-size="9.6" font-weight="normal" font-style="normal">
                  <tspan id="Fig:densplot_01.ticklabels.left.panel.1.1.1.5.tspan.1" dy="0" x="0">0.020</tspan>
                </text>
              </g>
            </g>
            <g id="Fig:densplot_01.ticklabels.left.panel.1.1.1.6" transform="translate(39.47, 212.57)" stroke-width="0.1">
              <g id="Fig:densplot_01.ticklabels.left.panel.1.1.1.6.scale" transform="scale(1, -1)">
                <text x="0" y="0" id="Fig:densplot_01.ticklabels.left.panel.1.1.1.6.text" transform="rotate(-90)" text-anchor="middle" stroke="rgb(0,0,0)" opacity="1" fill="rgb(0,0,0)" stroke-opacity="1" fill-opacity="1" font-size="9.6" font-weight="normal" font-style="normal">
                  <tspan id="Fig:densplot_01.ticklabels.left.panel.1.1.1.6.tspan.1" dy="0" x="0">0.025</tspan>
                </text>
              </g>
            </g>
          </g>
        </g>
        <g id="Fig:densplot_01.panel.1.1.off.vp.1">
          <g id="Fig:densplot_01.ticks.bottom.panel.1.1.1">
            <polyline id="Fig:densplot_01.ticks.bottom.panel.1.1.1.1" points="63.17,48.19 63.17,42.52" stroke="rgb(0,0,0)" opacity="1" stroke-dasharray="none" stroke-width="0.75" stroke-opacity="1" fill="none"/>
            <polyline id="Fig:densplot_01.ticks.bottom.panel.1.1.1.2" points="128.38,48.19 128.38,42.52" stroke="rgb(0,0,0)" opacity="1" stroke-dasharray="none" stroke-width="0.75" stroke-opacity="1" fill="none"/>
            <polyline id="Fig:densplot_01.ticks.bottom.panel.1.1.1.3" points="193.58,48.19 193.58,42.52" stroke="rgb(0,0,0)" opacity="1" stroke-dasharray="none" stroke-width="0.75" stroke-opacity="1" fill="none"/>
            <polyline id="Fig:densplot_01.ticks.bottom.panel.1.1.1.4" points="258.79,48.19 258.79,42.52" stroke="rgb(0,0,0)" opacity="1" stroke-dasharray="none" stroke-width="0.75" stroke-opacity="1" fill="none"/>
          </g>
          <g id="Fig:densplot_01.ticklabels.bottom.panel.1.1.1">
            <g id="Fig:densplot_01.ticklabels.bottom.panel.1.1.1.1" transform="translate(63.17, 36.85)" stroke-width="0.1">
              <g id="Fig:densplot_01.ticklabels.bottom.panel.1.1.1.1.scale" transform="scale(1, -1)">
                <text x="0" y="0" id="Fig:densplot_01.ticklabels.bottom.panel.1.1.1.1.text" text-anchor="middle" stroke="rgb(0,0,0)" opacity="1" fill="rgb(0,0,0)" stroke-opacity="1" fill-opacity="1" font-size="9.6" font-weight="normal" font-style="normal">
                  <tspan id="Fig:densplot_01.ticklabels.bottom.panel.1.1.1.1.tspan.1" dy="7.18" x="0">0</tspan>
                </text>
              </g>
            </g>
            <g id="Fig:densplot_01.ticklabels.bottom.panel.1.1.1.2" transform="translate(128.38, 36.85)" stroke-width="0.1">
              <g id="Fig:densplot_01.ticklabels.bottom.panel.1.1.1.2.scale" transform="scale(1, -1)">
                <text x="0" y="0" id="Fig:densplot_01.ticklabels.bottom.panel.1.1.1.2.text" text-anchor="middle" stroke="rgb(0,0,0)" opacity="1" fill="rgb(0,0,0)" stroke-opacity="1" fill-opacity="1" font-size="9.6" font-weight="normal" font-style="normal">
                  <tspan id="Fig:densplot_01.ticklabels.bottom.panel.1.1.1.2.tspan.1" dy="7.18" x="0">500</tspan>
                </text>
              </g>
            </g>
            <g id="Fig:densplot_01.ticklabels.bottom.panel.1.1.1.3" transform="translate(193.58, 36.85)" stroke-width="0.1">
              <g id="Fig:densplot_01.ticklabels.bottom.panel.1.1.1.3.scale" transform="scale(1, -1)">
                <text x="0" y="0" id="Fig:densplot_01.ticklabels.bottom.panel.1.1.1.3.text" text-anchor="middle" stroke="rgb(0,0,0)" opacity="1" fill="rgb(0,0,0)" stroke-opacity="1" fill-opacity="1" font-size="9.6" font-weight="normal" font-style="normal">
                  <tspan id="Fig:densplot_01.ticklabels.bottom.panel.1.1.1.3.tspan.1" dy="7.18" x="0">1000</tspan>
                </text>
              </g>
            </g>
            <g id="Fig:densplot_01.ticklabels.bottom.panel.1.1.1.4" transform="translate(258.79, 36.85)" stroke-width="0.1">
              <g id="Fig:densplot_01.ticklabels.bottom.panel.1.1.1.4.scale" transform="scale(1, -1)">
                <text x="0" y="0" id="Fig:densplot_01.ticklabels.bottom.panel.1.1.1.4.text" text-anchor="middle" stroke="rgb(0,0,0)" opacity="1" fill="rgb(0,0,0)" stroke-opacity="1" fill-opacity="1" font-size="9.6" font-weight="normal" font-style="normal">
                  <tspan id="Fig:densplot_01.ticklabels.bottom.panel.1.1.1.4.tspan.1" dy="7.18" x="0">1500</tspan>
                </text>
              </g>
            </g>
          </g>
        </g>
        <defs>
          <clipPath id="Fig:densplot_01.panel.1.1.vp.2.clipPath">
            <rect x="50.8" y="48.19" width="225.2" height="185.81" fill="none" stroke="none"/>
          </clipPath>
        </defs>
        <g id="Fig:densplot_01.panel.1.1.vp.2" clip-path="url(#Fig:densplot_01.panel.1.1.vp.2.clipPath)">
          <g id="Fig:densplot_01.xyplot.lines.group.1.panel.1.1.1">
            <polyline id="Fig:densplot_01.xyplot.lines.group.1.panel.1.1.1.1" points="64.63,59.6 65.02,59.63 65.4,60.34 65.79,67.65 66.18,96.81 66.56,148.46 66.95,188.44 67.34,196.12 67.72,184.21 68.11,168.41 68.49,153.93 68.88,141.83 69.27,132.07 69.65,123.81 70.04,116.95 70.43,111.2 70.81,106.37 71.2,102.32 71.58,98.79 71.97,95.77 72.36,93.17 72.74,90.83 73.13,88.69 73.52,86.71 73.9,84.86 74.29,83.18 74.68,81.68 75.06,80.33 75.45,79.09 75.83,77.97 76.22,76.98 76.61,76.06 76.99,75.2 77.38,74.38 77.77,73.6 78.15,72.91 78.54,72.3 78.92,71.73 79.31,71.18 79.7,70.67 80.08,70.21 80.47,69.78 80.86,69.37 81.24,68.98 81.63,68.61 82.01,68.27 82.4,67.95 82.79,67.63 83.17,67.34 83.56,67.09 83.95,66.85 84.33,66.6 84.72,66.38 85.1,66.18 85.49,65.96 85.88,65.73 86.26,65.54 86.65,65.39 87.04,65.21 87.42,65.01 87.81,64.83 88.2,64.66 88.58,64.55 88.97,64.43 89.35,64.28 89.74,64.12 90.13,63.98 90.51,63.89 90.9,63.8 91.29,63.7 91.67,63.6 92.06,63.48 92.44,63.37 92.83,63.26 93.22,63.16 93.6,63.09 93.99,63.03 94.38,62.96 94.76,62.88 95.15,62.8 95.53,62.72 95.92,62.66 96.31,62.61 96.69,62.52 97.08,62.44 97.47,62.37 97.85,62.32 98.24,62.26 98.62,62.19 99.01,62.14 99.4,62.09 99.78,62.04 100.17,62 100.56,61.93 100.94,61.88 101.33,61.85 101.72,61.8 102.1,61.76 102.49,61.73 102.87,61.69 103.26,61.64 103.65,61.61 104.03,61.57 104.42,61.52 104.81,61.48 105.19,61.45 105.58,61.43 105.96,61.41 106.35,61.39 106.74,61.36 107.12,61.32 107.51,61.29 107.9,61.25 108.28,61.22 108.67,61.19 109.05,61.18 109.44,61.16 109.83,61.14 110.21,61.12 110.6,61.1 110.99,61.08 111.37,61.06 111.76,61.05 112.14,61.03 112.53,61 112.92,60.97 113.3,60.93 113.69,60.91 114.08,60.89 114.46,60.86 114.85,60.84 115.24,60.83 115.62,60.82 116.01,60.81 116.39,60.79 116.78,60.78 117.17,60.76 117.55,60.73 117.94,60.71 118.33,60.7 118.71,60.68 119.1,60.66 119.48,60.65 119.87,60.63 120.26,60.61 120.64,60.6 121.03,60.59 121.42,60.57 121.8,60.56 122.19,60.55 122.57,60.55 122.96,60.54 123.35,60.53 123.73,60.52 124.12,60.5 124.51,60.49 124.89,60.47 125.28,60.46 125.66,60.45 126.05,60.44 126.44,60.44 126.82,60.43 127.21,60.42 127.6,60.41 127.98,60.4 128.37,60.39 128.76,60.38 129.14,60.37 129.53,60.36 129.91,60.35 130.3,60.33 130.69,60.32 131.07,60.32 131.46,60.31 131.85,60.3 132.23,60.3 132.62,60.3 133,60.29 133.39,60.28 133.78,60.28 134.16,60.28 134.55,60.27 134.94,60.26 135.32,60.25 135.71,60.24 136.09,60.23 136.48,60.22 136.87,60.21 137.25,60.21 137.64,60.21 138.03,60.2 138.41,60.19 138.8,60.18 139.18,60.17 139.57,60.17 139.96,60.16 140.34,60.16 140.73,60.15 141.12,60.15 141.5,60.14 141.89,60.13 142.28,60.13 142.66,60.13 143.05,60.12 143.43,60.11 143.82,60.1 144.21,60.1 144.59,60.1 144.98,60.09 145.37,60.09 145.75,60.1 146.14,60.09 146.52,60.08 146.91,60.07 147.3,60.06 147.68,60.05 148.07,60.05 148.46,60.06 148.84,60.06 149.23,60.05 149.61,60.04 150,60.04 150.39,60.04 150.77,60.03 151.16,60.02 151.55,60.02 151.93,60.02 152.32,60.02 152.7,60.02 153.09,60.01 153.48,60.01 153.86,60 154.25,60 154.64,60 155.02,59.99 155.41,59.99 155.8,59.99 156.18,59.98 156.57,59.97 156.95,59.97 157.34,59.96 157.73,59.96 158.11,59.97 158.5,59.97 158.89,59.97 159.27,59.96 159.66,59.95 160.04,59.94 160.43,59.95 160.82,59.94 161.2,59.94 161.59,59.94 161.98,59.93 162.36,59.93 162.75,59.93 163.13,59.93 163.52,59.92 163.91,59.92 164.29,59.92 164.68,59.91 165.07,59.9 165.45,59.91 165.84,59.91 166.22,59.91 166.61,59.91 167,59.91 167.38,59.91 167.77,59.9 168.16,59.9 168.54,59.9 168.93,59.89 169.32,59.89 169.7,59.89 170.09,59.89 170.47,59.89 170.86,59.88 171.25,59.88 171.63,59.87 172.02,59.87 172.41,59.87 172.79,59.87 173.18,59.87 173.56,59.86 173.95,59.86 174.34,59.86 174.72,59.86 175.11,59.86 175.5,59.86 175.88,59.86 176.27,59.86 176.65,59.86 177.04,59.85 177.43,59.85 177.81,59.85 178.2,59.85 178.59,59.84 178.97,59.84 179.36,59.84 179.74,59.83 180.13,59.83 180.52,59.83 180.9,59.83 181.29,59.82 181.68,59.83 182.06,59.83 182.45,59.83 182.84,59.83 183.22,59.83 183.61,59.83 183.99,59.82 184.38,59.82 184.77,59.82 185.15,59.82 185.54,59.81 185.93,59.81 186.31,59.81 186.7,59.81 187.08,59.81 187.47,59.81 187.86,59.81 188.24,59.82 188.63,59.81 189.02,59.8 189.4,59.8 189.79,59.8 190.17,59.8 190.56,59.8 190.95,59.8 191.33,59.8 191.72,59.8 192.11,59.8 192.49,59.8 192.88,59.79 193.26,59.79 193.65,59.79 194.04,59.79 194.42,59.79 194.81,59.78 195.2,59.78 195.58,59.78 195.97,59.78 196.36,59.79 196.74,59.78 197.13,59.78 197.51,59.78 197.9,59.78 198.29,59.78 198.67,59.78 199.06,59.78 199.45,59.78 199.83,59.78 200.22,59.77 200.6,59.77 200.99,59.77 201.38,59.78 201.76,59.77 202.15,59.77 202.54,59.77 202.92,59.77 203.31,59.77 203.69,59.77 204.08,59.77 204.47,59.76 204.85,59.76 205.24,59.76 205.63,59.75 206.01,59.75 206.4,59.75 206.78,59.75 207.17,59.75 207.56,59.75 207.94,59.75 208.33,59.75 208.72,59.75 209.1,59.75 209.49,59.75 209.88,59.75 210.26,59.75 210.65,59.75 211.03,59.74 211.42,59.74 211.81,59.74 212.19,59.75 212.58,59.75 212.97,59.74 213.35,59.74 213.74,59.74 214.12,59.74 214.51,59.74 214.9,59.73 215.28,59.73 215.67,59.73 216.06,59.73 216.44,59.74 216.83,59.74 217.21,59.73 217.6,59.73 217.99,59.73 218.37,59.73 218.76,59.73 219.15,59.73 219.53,59.73 219.92,59.73 220.3,59.73 220.69,59.73 221.08,59.73 221.46,59.73 221.85,59.72 222.24,59.72 222.62,59.72 223.01,59.72 223.4,59.72 223.78,59.72 224.17,59.72 224.55,59.72 224.94,59.72 225.33,59.72 225.71,59.72 226.1,59.72 226.49,59.71 226.87,59.71 227.26,59.71 227.64,59.71 228.03,59.71 228.42,59.72 228.8,59.72 229.19,59.72 229.58,59.72 229.96,59.71 230.35,59.71 230.73,59.72 231.12,59.72 231.51,59.71 231.89,59.71 232.28,59.71 232.67,59.7 233.05,59.7 233.44,59.71 233.82,59.71 234.21,59.71 234.6,59.71 234.98,59.71 235.37,59.7 235.76,59.7 236.14,59.71 236.53,59.71 236.92,59.71 237.3,59.71 237.69,59.7 238.07,59.7 238.46,59.71 238.85,59.7 239.23,59.7 239.62,59.7 240.01,59.7 240.39,59.7 240.78,59.7 241.16,59.7 241.55,59.7 241.94,59.7 242.32,59.7 242.71,59.7 243.1,59.7 243.48,59.7 243.87,59.7 244.25,59.69 244.64,59.69 245.03,59.69 245.41,59.7 245.8,59.69 246.19,59.69 246.57,59.69 246.96,59.69 247.34,59.69 247.73,59.69 248.12,59.69 248.5,59.69 248.89,59.69 249.28,59.7 249.66,59.69 250.05,59.69 250.44,59.69 250.82,59.69 251.21,59.69 251.59,59.69 251.98,59.69 252.37,59.69 252.75,59.68 253.14,59.68 253.53,59.69 253.91,59.69 254.3,59.69 254.68,59.68 255.07,59.68 255.46,59.68 255.84,59.68 256.23,59.68 256.62,59.68 257,59.69 257.39,59.69 257.77,59.69 258.16,59.69 258.55,59.69 258.93,59.68 259.32,59.68 259.71,59.68 260.09,59.68 260.48,59.68 260.86,59.66 261.25,59.63 261.64,59.6 262.02,59.6" stroke-dasharray="none" stroke="rgb(31,120,180)" stroke-width="0.75" opacity="1" stroke-opacity="1" fill="none"/>
          </g>
          <g id="Fig:densplot_01.xyplot.lines.group.2.panel.1.1.1">
            <polyline id="Fig:densplot_01.xyplot.lines.group.2.panel.1.1.1.1" points="64.74,59.6 65.13,59.66 65.52,60.32 65.9,64.42 66.29,78.21 66.68,105.4 67.06,138.13 67.45,162.01 67.83,170.64 68.22,167.79 68.61,159.71 68.99,150.25 69.38,141.03 69.77,132.51 70.15,124.86 70.54,118.27 70.93,112.62 71.31,107.63 71.7,103.25 72.08,99.44 72.47,96.08 72.86,93.15 73.24,90.54 73.63,88.25 74.02,86.31 74.4,84.57 74.79,83 75.18,81.58 75.56,80.21 75.95,79.02 76.33,78.03 76.72,77.07 77.11,76.15 77.49,75.29 77.88,74.51 78.27,73.8 78.65,73.15 79.04,72.54 79.43,71.97 79.81,71.37 80.2,70.84 80.58,70.36 80.97,69.95 81.36,69.56 81.74,69.19 82.13,68.85 82.52,68.5 82.9,68.16 83.29,67.85 83.68,67.56 84.06,67.28 84.45,67.01 84.83,66.76 85.22,66.53 85.61,66.34 85.99,66.15 86.38,65.97 86.77,65.78 87.15,65.6 87.54,65.41 87.93,65.24 88.31,65.09 88.7,64.94 89.08,64.78 89.47,64.65 89.86,64.55 90.24,64.44 90.63,64.31 91.02,64.18 91.4,64.05 91.79,63.95 92.18,63.85 92.56,63.75 92.95,63.65 93.33,63.57 93.72,63.48 94.11,63.38 94.49,63.29 94.88,63.2 95.27,63.11 95.65,63.03 96.04,62.96 96.43,62.9 96.81,62.86 97.2,62.81 97.58,62.76 97.97,62.7 98.36,62.64 98.74,62.58 99.13,62.52 99.52,62.45 99.9,62.39 100.29,62.33 100.68,62.28 101.06,62.23 101.45,62.19 101.83,62.16 102.22,62.13 102.61,62.1 102.99,62.05 103.38,62 103.77,61.95 104.15,61.91 104.54,61.86 104.93,61.81 105.31,61.77 105.7,61.74 106.08,61.72 106.47,61.7 106.86,61.67 107.24,61.63 107.63,61.61 108.02,61.58 108.4,61.54 108.79,61.49 109.18,61.45 109.56,61.43 109.95,61.42 110.33,61.4 110.72,61.37 111.11,61.35 111.49,61.33 111.88,61.31 112.27,61.29 112.65,61.26 113.04,61.23 113.43,61.2 113.81,61.18 114.2,61.18 114.58,61.17 114.97,61.15 115.36,61.12 115.74,61.08 116.13,61.06 116.52,61.04 116.9,61.02 117.29,61.01 117.67,61 118.06,60.98 118.45,60.95 118.83,60.93 119.22,60.91 119.61,60.89 119.99,60.87 120.38,60.86 120.77,60.86 121.15,60.86 121.54,60.84 121.92,60.82 122.31,60.79 122.7,60.77 123.08,60.76 123.47,60.75 123.86,60.73 124.24,60.72 124.63,60.71 125.02,60.71 125.4,60.69 125.79,60.67 126.17,60.66 126.56,60.65 126.95,60.63 127.33,60.62 127.72,60.6 128.11,60.59 128.49,60.6 128.88,60.6 129.27,60.58 129.65,60.56 130.04,60.55 130.42,60.54 130.81,60.54 131.2,60.53 131.58,60.53 131.97,60.52 132.36,60.5 132.74,60.49 133.13,60.48 133.52,60.47 133.9,60.46 134.29,60.45 134.67,60.45 135.06,60.44 135.45,60.43 135.83,60.42 136.22,60.41 136.61,60.41 136.99,60.4 137.38,60.39 137.77,60.38 138.15,60.37 138.54,60.36 138.92,60.35 139.31,60.34 139.7,60.33 140.08,60.33 140.47,60.32 140.86,60.31 141.24,60.31 141.63,60.31 142.02,60.31 142.4,60.31 142.79,60.3 143.17,60.29 143.56,60.28 143.95,60.27 144.33,60.26 144.72,60.26 145.11,60.25 145.49,60.25 145.88,60.24 146.27,60.23 146.65,60.22 147.04,60.22 147.42,60.21 147.81,60.21 148.2,60.21 148.58,60.22 148.97,60.22 149.36,60.21 149.74,60.19 150.13,60.19 150.52,60.19 150.9,60.18 151.29,60.17 151.67,60.16 152.06,60.16 152.45,60.16 152.83,60.15 153.22,60.15 153.61,60.15 153.99,60.15 154.38,60.14 154.77,60.14 155.15,60.13 155.54,60.12 155.92,60.11 156.31,60.11 156.7,60.1 157.08,60.1 157.47,60.09 157.86,60.09 158.24,60.09 158.63,60.08 159.02,60.08 159.4,60.08 159.79,60.07 160.17,60.07 160.56,60.07 160.95,60.07 161.33,60.07 161.72,60.07 162.11,60.06 162.49,60.05 162.88,60.04 163.26,60.04 163.65,60.03 164.04,60.03 164.42,60.03 164.81,60.03 165.2,60.03 165.58,60.02 165.97,60.01 166.36,60.01 166.74,60.01 167.13,60.01 167.51,60 167.9,60 168.29,60 168.67,60 169.06,60.01 169.45,60 169.83,60 170.22,59.99 170.61,59.98 170.99,59.98 171.38,59.98 171.76,59.98 172.15,59.98 172.54,59.98 172.92,59.97 173.31,59.97 173.7,59.96 174.08,59.95 174.47,59.95 174.86,59.96 175.24,59.96 175.63,59.96 176.01,59.96 176.4,59.96 176.79,59.95 177.17,59.94 177.56,59.94 177.95,59.94 178.33,59.94 178.72,59.93 179.11,59.93 179.49,59.93 179.88,59.93 180.26,59.93 180.65,59.92 181.04,59.91 181.42,59.91 181.81,59.92 182.2,59.92 182.58,59.92 182.97,59.91 183.36,59.9 183.74,59.9 184.13,59.91 184.51,59.91 184.9,59.91 185.29,59.91 185.67,59.91 186.06,59.9 186.45,59.89 186.83,59.89 187.22,59.89 187.61,59.89 187.99,59.89 188.38,59.89 188.76,59.89 189.15,59.88 189.54,59.88 189.92,59.88 190.31,59.88 190.7,59.88 191.08,59.87 191.47,59.87 191.86,59.86 192.24,59.85 192.63,59.86 193.01,59.86 193.4,59.86 193.79,59.86 194.17,59.87 194.56,59.86 194.95,59.85 195.33,59.85 195.72,59.85 196.11,59.86 196.49,59.86 196.88,59.85 197.26,59.85 197.65,59.84 198.04,59.84 198.42,59.84 198.81,59.84 199.2,59.83 199.58,59.83 199.97,59.83 200.36,59.83 200.74,59.83 201.13,59.83 201.51,59.83 201.9,59.83 202.29,59.83 202.67,59.83 203.06,59.82 203.45,59.82 203.83,59.81 204.22,59.81 204.61,59.81 204.99,59.82 205.38,59.82 205.76,59.82 206.15,59.82 206.54,59.82 206.92,59.82 207.31,59.82 207.7,59.82 208.08,59.81 208.47,59.81 208.86,59.81 209.24,59.8 209.63,59.8 210.01,59.8 210.4,59.81 210.79,59.8 211.17,59.8 211.56,59.8 211.95,59.8 212.33,59.8 212.72,59.8 213.1,59.8 213.49,59.79 213.88,59.8 214.26,59.8 214.65,59.8 215.04,59.8 215.42,59.79 215.81,59.78 216.2,59.79 216.58,59.79 216.97,59.79 217.35,59.78 217.74,59.78 218.13,59.78 218.51,59.79 218.9,59.78 219.29,59.78 219.67,59.78 220.06,59.78 220.45,59.78 220.83,59.78 221.22,59.78 221.6,59.78 221.99,59.78 222.38,59.77 222.76,59.77 223.15,59.77 223.54,59.77 223.92,59.76 224.31,59.77 224.7,59.77 225.08,59.77 225.47,59.77 225.85,59.77 226.24,59.77 226.63,59.77 227.01,59.77 227.4,59.76 227.79,59.76 228.17,59.76 228.56,59.76 228.95,59.75 229.33,59.76 229.72,59.76 230.1,59.76 230.49,59.76 230.88,59.76 231.26,59.75 231.65,59.75 232.04,59.75 232.42,59.75 232.81,59.75 233.2,59.75 233.58,59.76 233.97,59.76 234.35,59.76 234.74,59.76 235.13,59.75 235.51,59.75 235.9,59.75 236.29,59.75 236.67,59.75 237.06,59.75 237.45,59.75 237.83,59.75 238.22,59.75 238.6,59.75 238.99,59.74 239.38,59.74 239.76,59.74 240.15,59.75 240.54,59.75 240.92,59.75 241.31,59.74 241.7,59.74 242.08,59.74 242.47,59.74 242.85,59.74 243.24,59.74 243.63,59.74 244.01,59.74 244.4,59.73 244.79,59.73 245.17,59.73 245.56,59.73 245.95,59.73 246.33,59.73 246.72,59.72 247.1,59.72 247.49,59.72 247.88,59.73 248.26,59.73 248.65,59.73 249.04,59.73 249.42,59.73 249.81,59.73 250.2,59.72 250.58,59.72 250.97,59.72 251.35,59.73 251.74,59.73 252.13,59.73 252.51,59.72 252.9,59.72 253.29,59.72 253.67,59.73 254.06,59.72 254.45,59.72 254.83,59.72 255.22,59.72 255.6,59.72 255.99,59.72 256.38,59.72 256.76,59.72 257.15,59.71 257.54,59.71 257.92,59.71 258.31,59.72 258.69,59.72 259.08,59.72 259.47,59.71 259.85,59.71 260.24,59.71 260.63,59.7 261.01,59.68 261.4,59.64 261.79,59.61 262.17,59.6" stroke-dasharray="none" stroke="rgb(31,120,180)" stroke-width="0.75" opacity="1" stroke-opacity="1" fill="none"/>
          </g>
          <g id="Fig:densplot_01.xyplot.lines.group.3.panel.1.1.1">
            <polyline id="Fig:densplot_01.xyplot.lines.group.3.panel.1.1.1.1" points="65.1,59.6 65.49,59.73 65.87,62.07 66.26,76.71 66.64,117.17 67.03,169.66 67.41,200.71 67.8,201.93 68.18,187.35 68.57,169.91 68.95,154.75 69.34,142.24 69.72,131.91 70.11,123.37 70.49,116.17 70.88,110.16 71.27,105.09 71.65,100.72 72.04,97.07 72.42,93.95 72.81,91.21 73.19,88.74 73.58,86.46 73.96,84.46 74.35,82.77 74.73,81.23 75.12,79.83 75.5,78.5 75.89,77.27 76.27,76.27 76.66,75.37 77.04,74.48 77.43,73.66 77.81,72.93 78.2,72.27 78.58,71.62 78.97,71.05 79.35,70.59 79.74,70.1 80.13,69.57 80.51,69.12 80.9,68.72 81.28,68.32 81.67,67.97 82.05,67.64 82.44,67.33 82.82,67.02 83.21,66.75 83.59,66.51 83.98,66.29 84.36,66.07 84.75,65.86 85.13,65.64 85.52,65.44 85.9,65.27 86.29,65.09 86.67,64.89 87.06,64.75 87.44,64.63 87.83,64.48 88.21,64.33 88.6,64.2 88.99,64.05 89.37,63.94 89.76,63.85 90.14,63.73 90.53,63.62 90.91,63.52 91.3,63.4 91.68,63.29 92.07,63.2 92.45,63.09 92.84,63.01 93.22,62.93 93.61,62.89 93.99,62.83 94.38,62.74 94.76,62.66 95.15,62.6 95.53,62.53 95.92,62.45 96.3,62.39 96.69,62.34 97.07,62.29 97.46,62.23 97.84,62.17 98.23,62.12 98.62,62.07 99,62.02 99.39,61.99 99.77,61.96 100.16,61.91 100.54,61.85 100.93,61.8 101.31,61.75 101.7,61.71 102.08,61.68 102.47,61.65 102.85,61.61 103.24,61.57 103.62,61.52 104.01,61.49 104.39,61.47 104.78,61.44 105.16,61.39 105.55,61.37 105.93,61.35 106.32,61.34 106.7,61.32 107.09,61.29 107.48,61.24 107.86,61.2 108.25,61.19 108.63,61.17 109.02,61.15 109.4,61.12 109.79,61.1 110.17,61.09 110.56,61.07 110.94,61.03 111.33,60.99 111.71,60.98 112.1,60.97 112.48,60.95 112.87,60.93 113.25,60.9 113.64,60.88 114.02,60.86 114.41,60.86 114.79,60.85 115.18,60.82 115.56,60.8 115.95,60.8 116.34,60.79 116.72,60.78 117.11,60.75 117.49,60.73 117.88,60.72 118.26,60.7 118.65,60.67 119.03,60.65 119.42,60.64 119.8,60.63 120.19,60.61 120.57,60.61 120.96,60.59 121.34,60.58 121.73,60.58 122.11,60.57 122.5,60.56 122.88,60.54 123.27,60.51 123.65,60.5 124.04,60.5 124.42,60.49 124.81,60.47 125.19,60.46 125.58,60.46 125.97,60.45 126.35,60.43 126.74,60.43 127.12,60.42 127.51,60.4 127.89,60.39 128.28,60.38 128.66,60.39 129.05,60.38 129.43,60.36 129.82,60.35 130.2,60.34 130.59,60.33 130.97,60.33 131.36,60.33 131.74,60.32 132.13,60.3 132.51,60.3 132.9,60.29 133.28,60.28 133.67,60.27 134.05,60.26 134.44,60.25 134.83,60.26 135.21,60.25 135.6,60.25 135.98,60.23 136.37,60.22 136.75,60.22 137.14,60.21 137.52,60.2 137.91,60.19 138.29,60.19 138.68,60.18 139.06,60.18 139.45,60.18 139.83,60.18 140.22,60.17 140.6,60.16 140.99,60.16 141.37,60.16 141.76,60.16 142.14,60.15 142.53,60.14 142.91,60.12 143.3,60.12 143.68,60.13 144.07,60.13 144.46,60.12 144.84,60.11 145.23,60.1 145.61,60.09 146,60.08 146.38,60.08 146.77,60.07 147.15,60.07 147.54,60.08 147.92,60.08 148.31,60.07 148.69,60.07 149.08,60.06 149.46,60.05 149.85,60.05 150.23,60.04 150.62,60.04 151,60.04 151.39,60.04 151.77,60.03 152.16,60.02 152.54,60.01 152.93,60.01 153.32,60.02 153.7,60.02 154.09,60.01 154.47,60.01 154.86,60.01 155.24,60 155.63,59.99 156.01,59.99 156.4,59.98 156.78,59.97 157.17,59.97 157.55,59.98 157.94,59.98 158.32,59.97 158.71,59.97 159.09,59.97 159.48,59.97 159.86,59.96 160.25,59.95 160.63,59.95 161.02,59.94 161.4,59.94 161.79,59.94 162.18,59.94 162.56,59.94 162.95,59.94 163.33,59.93 163.72,59.93 164.1,59.92 164.49,59.92 164.87,59.92 165.26,59.92 165.64,59.92 166.03,59.92 166.41,59.92 166.8,59.91 167.18,59.91 167.57,59.91 167.95,59.91 168.34,59.91 168.72,59.9 169.11,59.9 169.49,59.9 169.88,59.9 170.26,59.89 170.65,59.89 171.03,59.89 171.42,59.88 171.81,59.88 172.19,59.88 172.58,59.88 172.96,59.87 173.35,59.86 173.73,59.86 174.12,59.87 174.5,59.87 174.89,59.87 175.27,59.86 175.66,59.86 176.04,59.86 176.43,59.86 176.81,59.86 177.2,59.85 177.58,59.86 177.97,59.86 178.35,59.85 178.74,59.85 179.12,59.86 179.51,59.86 179.89,59.85 180.28,59.84 180.67,59.84 181.05,59.84 181.44,59.84 181.82,59.84 182.21,59.83 182.59,59.83 182.98,59.83 183.36,59.84 183.75,59.84 184.13,59.83 184.52,59.83 184.9,59.83 185.29,59.82 185.67,59.82 186.06,59.82 186.44,59.83 186.83,59.82 187.21,59.82 187.6,59.81 187.98,59.81 188.37,59.81 188.75,59.81 189.14,59.81 189.53,59.81 189.91,59.81 190.3,59.81 190.68,59.8 191.07,59.8 191.45,59.8 191.84,59.8 192.22,59.8 192.61,59.8 192.99,59.8 193.38,59.79 193.76,59.79 194.15,59.79 194.53,59.78 194.92,59.79 195.3,59.79 195.69,59.78 196.07,59.78 196.46,59.79 196.84,59.78 197.23,59.78 197.61,59.78 198,59.78 198.38,59.78 198.77,59.78 199.16,59.78 199.54,59.78 199.93,59.78 200.31,59.78 200.7,59.78 201.08,59.78 201.47,59.78 201.85,59.77 202.24,59.77 202.62,59.77 203.01,59.77 203.39,59.76 203.78,59.76 204.16,59.76 204.55,59.77 204.93,59.77 205.32,59.77 205.7,59.76 206.09,59.76 206.47,59.76 206.86,59.77 207.24,59.76 207.63,59.76 208.02,59.76 208.4,59.76 208.79,59.76 209.17,59.75 209.56,59.75 209.94,59.75 210.33,59.76 210.71,59.75 211.1,59.75 211.48,59.75 211.87,59.75 212.25,59.75 212.64,59.75 213.02,59.75 213.41,59.75 213.79,59.75 214.18,59.75 214.56,59.75 214.95,59.74 215.33,59.74 215.72,59.74 216.1,59.74 216.49,59.74 216.88,59.73 217.26,59.74 217.65,59.74 218.03,59.74 218.42,59.74 218.8,59.73 219.19,59.74 219.57,59.74 219.96,59.74 220.34,59.73 220.73,59.73 221.11,59.73 221.5,59.73 221.88,59.73 222.27,59.73 222.65,59.73 223.04,59.73 223.42,59.73 223.81,59.73 224.19,59.73 224.58,59.72 224.96,59.72 225.35,59.72 225.73,59.73 226.12,59.73 226.51,59.73 226.89,59.72 227.28,59.72 227.66,59.72 228.05,59.72 228.43,59.72 228.82,59.72 229.2,59.72 229.59,59.72 229.97,59.72 230.36,59.71 230.74,59.72 231.13,59.72 231.51,59.72 231.9,59.71 232.28,59.72 232.67,59.72 233.05,59.72 233.44,59.72 233.82,59.71 234.21,59.71 234.59,59.71 234.98,59.71 235.37,59.71 235.75,59.71 236.14,59.71 236.52,59.71 236.91,59.71 237.29,59.71 237.68,59.71 238.06,59.7 238.45,59.7 238.83,59.71 239.22,59.7 239.6,59.7 239.99,59.7 240.37,59.7 240.76,59.7 241.14,59.7 241.53,59.7 241.91,59.7 242.3,59.7 242.68,59.7 243.07,59.7 243.45,59.69 243.84,59.69 244.23,59.7 244.61,59.7 245,59.69 245.38,59.69 245.77,59.7 246.15,59.7 246.54,59.7 246.92,59.7 247.31,59.7 247.69,59.7 248.08,59.7 248.46,59.7 248.85,59.7 249.23,59.69 249.62,59.69 250,59.69 250.39,59.69 250.77,59.69 251.16,59.69 251.54,59.69 251.93,59.69 252.31,59.69 252.7,59.7 253.08,59.7 253.47,59.69 253.86,59.69 254.24,59.69 254.63,59.69 255.01,59.69 255.4,59.69 255.78,59.69 256.17,59.69 256.55,59.69 256.94,59.69 257.32,59.69 257.71,59.69 258.09,59.69 258.48,59.69 258.86,59.68 259.25,59.68 259.63,59.68 260.02,59.68 260.4,59.68 260.79,59.67 261.17,59.65 261.56,59.61 261.94,59.6" stroke-dasharray="none" stroke="rgb(31,120,180)" stroke-width="0.75" opacity="1" stroke-opacity="1" fill="none"/>
          </g>
          <g id="Fig:densplot_01.xyplot.lines.group.4.panel.1.1.1">
            <polyline id="Fig:densplot_01.xyplot.lines.group.4.panel.1.1.1.1" points="64.8,59.6 65.18,59.64 65.57,60.52 65.95,67.86 66.34,94.13 66.73,139.05 67.11,176.85 67.5,190.63 67.88,185.96 68.27,173.63 68.65,160.23 69.04,148.08 69.43,137.67 69.81,128.75 70.2,121.09 70.58,114.68 70.97,109.29 71.36,104.48 71.74,100.22 72.13,96.55 72.51,93.35 72.9,90.61 73.29,88.22 73.67,86.14 74.06,84.35 74.44,82.67 74.83,81.15 75.22,79.78 75.6,78.51 75.99,77.46 76.37,76.55 76.76,75.66 77.14,74.83 77.53,74.06 77.92,73.33 78.3,72.64 78.69,72.01 79.07,71.44 79.46,70.91 79.85,70.41 80.23,69.94 80.62,69.51 81,69.08 81.39,68.67 81.78,68.32 82.16,67.98 82.55,67.66 82.93,67.36 83.32,67.09 83.7,66.83 84.09,66.57 84.48,66.33 84.86,66.08 85.25,65.87 85.63,65.67 86.02,65.48 86.41,65.31 86.79,65.15 87.18,65 87.56,64.86 87.95,64.7 88.34,64.54 88.72,64.39 89.11,64.25 89.49,64.11 89.88,63.98 90.27,63.85 90.65,63.75 91.04,63.66 91.42,63.53 91.81,63.42 92.19,63.32 92.58,63.23 92.97,63.14 93.35,63.05 93.74,62.96 94.12,62.89 94.51,62.84 94.9,62.75 95.28,62.67 95.67,62.62 96.05,62.57 96.44,62.5 96.83,62.43 97.21,62.36 97.6,62.29 97.98,62.25 98.37,62.2 98.76,62.14 99.14,62.09 99.53,62.04 99.91,61.99 100.3,61.95 100.68,61.92 101.07,61.89 101.46,61.84 101.84,61.78 102.23,61.74 102.61,61.71 103,61.69 103.39,61.65 103.77,61.59 104.16,61.54 104.54,61.49 104.93,61.45 105.32,61.45 105.7,61.43 106.09,61.4 106.47,61.37 106.86,61.34 107.24,61.31 107.63,61.27 108.02,61.23 108.4,61.22 108.79,61.21 109.17,61.19 109.56,61.17 109.95,61.14 110.33,61.12 110.72,61.1 111.1,61.08 111.49,61.04 111.88,61.01 112.26,60.99 112.65,60.97 113.03,60.96 113.42,60.95 113.81,60.95 114.19,60.93 114.58,60.9 114.96,60.87 115.35,60.85 115.73,60.83 116.12,60.82 116.51,60.8 116.89,60.79 117.28,60.77 117.66,60.75 118.05,60.72 118.44,60.7 118.82,60.68 119.21,60.68 119.59,60.67 119.98,60.65 120.37,60.62 120.75,60.6 121.14,60.6 121.52,60.59 121.91,60.58 122.29,60.57 122.68,60.55 123.07,60.54 123.45,60.52 123.84,60.51 124.22,60.5 124.61,60.5 125,60.51 125.38,60.5 125.77,60.48 126.15,60.45 126.54,60.45 126.93,60.43 127.31,60.42 127.7,60.41 128.08,60.4 128.47,60.4 128.86,60.41 129.24,60.4 129.63,60.37 130.01,60.35 130.4,60.33 130.78,60.33 131.17,60.33 131.56,60.33 131.94,60.34 132.33,60.33 132.71,60.32 133.1,60.29 133.49,60.27 133.87,60.27 134.26,60.28 134.64,60.28 135.03,60.27 135.42,60.26 135.8,60.25 136.19,60.23 136.57,60.22 136.96,60.21 137.34,60.22 137.73,60.23 138.12,60.22 138.5,60.21 138.89,60.2 139.27,60.2 139.66,60.19 140.05,60.18 140.43,60.17 140.82,60.17 141.2,60.16 141.59,60.15 141.98,60.14 142.36,60.14 142.75,60.13 143.13,60.13 143.52,60.13 143.91,60.12 144.29,60.13 144.68,60.13 145.06,60.12 145.45,60.11 145.83,60.1 146.22,60.1 146.61,60.09 146.99,60.09 147.38,60.09 147.76,60.08 148.15,60.07 148.54,60.07 148.92,60.06 149.31,60.06 149.69,60.06 150.08,60.05 150.47,60.04 150.85,60.03 151.24,60.03 151.62,60.02 152.01,60.02 152.39,60.02 152.78,60.02 153.17,60.02 153.55,60.01 153.94,60 154.32,60 154.71,60.01 155.1,60.01 155.48,60 155.87,60 156.25,59.99 156.64,59.99 157.03,59.99 157.41,59.98 157.8,59.97 158.18,59.98 158.57,59.98 158.96,59.97 159.34,59.97 159.73,59.97 160.11,59.96 160.5,59.96 160.88,59.95 161.27,59.94 161.66,59.94 162.04,59.95 162.43,59.94 162.81,59.94 163.2,59.93 163.59,59.92 163.97,59.93 164.36,59.93 164.74,59.93 165.13,59.92 165.52,59.92 165.9,59.92 166.29,59.92 166.67,59.92 167.06,59.91 167.44,59.91 167.83,59.91 168.22,59.9 168.6,59.9 168.99,59.9 169.37,59.9 169.76,59.89 170.15,59.89 170.53,59.89 170.92,59.89 171.3,59.88 171.69,59.88 172.08,59.88 172.46,59.88 172.85,59.88 173.23,59.88 173.62,59.88 174.01,59.88 174.39,59.88 174.78,59.88 175.16,59.87 175.55,59.86 175.93,59.85 176.32,59.85 176.71,59.86 177.09,59.86 177.48,59.86 177.86,59.86 178.25,59.86 178.64,59.86 179.02,59.86 179.41,59.85 179.79,59.84 180.18,59.84 180.57,59.84 180.95,59.84 181.34,59.84 181.72,59.84 182.11,59.84 182.49,59.83 182.88,59.83 183.27,59.83 183.65,59.83 184.04,59.83 184.42,59.83 184.81,59.82 185.2,59.82 185.58,59.82 185.97,59.82 186.35,59.82 186.74,59.82 187.13,59.82 187.51,59.82 187.9,59.81 188.28,59.81 188.67,59.81 189.06,59.81 189.44,59.81 189.83,59.81 190.21,59.8 190.6,59.8 190.98,59.8 191.37,59.8 191.76,59.8 192.14,59.79 192.53,59.79 192.91,59.79 193.3,59.79 193.69,59.79 194.07,59.79 194.46,59.79 194.84,59.8 195.23,59.79 195.62,59.79 196,59.79 196.39,59.79 196.77,59.79 197.16,59.79 197.54,59.79 197.93,59.78 198.32,59.78 198.7,59.78 199.09,59.78 199.47,59.78 199.86,59.78 200.25,59.77 200.63,59.77 201.02,59.77 201.4,59.77 201.79,59.77 202.18,59.77 202.56,59.77 202.95,59.76 203.33,59.76 203.72,59.77 204.11,59.77 204.49,59.77 204.88,59.76 205.26,59.77 205.65,59.77 206.03,59.76 206.42,59.76 206.81,59.76 207.19,59.76 207.58,59.76 207.96,59.76 208.35,59.76 208.74,59.76 209.12,59.76 209.51,59.76 209.89,59.76 210.28,59.76 210.67,59.76 211.05,59.75 211.44,59.75 211.82,59.75 212.21,59.75 212.59,59.75 212.98,59.75 213.37,59.75 213.75,59.75 214.14,59.75 214.52,59.75 214.91,59.75 215.3,59.75 215.68,59.74 216.07,59.74 216.45,59.74 216.84,59.74 217.23,59.74 217.61,59.73 218,59.73 218.38,59.73 218.77,59.73 219.16,59.73 219.54,59.73 219.93,59.73 220.31,59.73 220.7,59.73 221.08,59.73 221.47,59.73 221.86,59.73 222.24,59.73 222.63,59.72 223.01,59.73 223.4,59.73 223.79,59.73 224.17,59.73 224.56,59.73 224.94,59.73 225.33,59.73 225.72,59.72 226.1,59.72 226.49,59.72 226.87,59.72 227.26,59.72 227.64,59.72 228.03,59.72 228.42,59.72 228.8,59.72 229.19,59.72 229.57,59.72 229.96,59.71 230.35,59.72 230.73,59.72 231.12,59.72 231.5,59.71 231.89,59.71 232.28,59.71 232.66,59.71 233.05,59.71 233.43,59.71 233.82,59.71 234.21,59.71 234.59,59.71 234.98,59.7 235.36,59.71 235.75,59.71 236.13,59.71 236.52,59.71 236.91,59.7 237.29,59.7 237.68,59.71 238.06,59.7 238.45,59.7 238.84,59.7 239.22,59.7 239.61,59.71 239.99,59.71 240.38,59.71 240.77,59.71 241.15,59.7 241.54,59.7 241.92,59.7 242.31,59.71 242.69,59.7 243.08,59.7 243.47,59.7 243.85,59.7 244.24,59.7 244.62,59.7 245.01,59.7 245.4,59.7 245.78,59.7 246.17,59.69 246.55,59.69 246.94,59.69 247.33,59.69 247.71,59.69 248.1,59.69 248.48,59.69 248.87,59.69 249.26,59.69 249.64,59.69 250.03,59.69 250.41,59.69 250.8,59.69 251.18,59.69 251.57,59.69 251.96,59.69 252.34,59.69 252.73,59.69 253.11,59.69 253.5,59.69 253.89,59.69 254.27,59.69 254.66,59.69 255.04,59.68 255.43,59.68 255.82,59.68 256.2,59.68 256.59,59.68 256.97,59.68 257.36,59.68 257.75,59.68 258.13,59.68 258.52,59.68 258.9,59.68 259.29,59.69 259.67,59.69 260.06,59.68 260.45,59.68 260.83,59.67 261.22,59.64 261.6,59.61 261.99,59.6" stroke-dasharray="none" stroke="rgb(31,120,180)" stroke-width="0.75" opacity="1" stroke-opacity="1" fill="none"/>
          </g>
          <g id="Fig:densplot_01.xyplot.lines.group.5.panel.1.1.1">
            <polyline id="Fig:densplot_01.xyplot.lines.group.5.panel.1.1.1.1" points="64.69,59.6 65.08,59.68 65.47,60.71 65.85,67.19 66.24,89.16 66.62,129.93 67.01,169.55 67.4,186.27 67.78,182.61 68.17,170.79 68.56,157.82 68.94,146.14 69.33,136.17 69.72,127.54 70.1,120.02 70.49,113.69 70.87,108.45 71.26,103.88 71.65,99.91 72.03,96.43 72.42,93.36 72.81,90.62 73.19,88.15 73.58,86.05 73.96,84.26 74.35,82.6 74.74,81.13 75.12,79.85 75.51,78.62 75.9,77.53 76.28,76.57 76.67,75.65 77.05,74.83 77.44,74.07 77.83,73.33 78.21,72.65 78.6,72.01 78.99,71.44 79.37,70.92 79.76,70.41 80.15,69.94 80.53,69.51 80.92,69.12 81.3,68.74 81.69,68.39 82.08,68.05 82.46,67.74 82.85,67.45 83.24,67.18 83.62,66.94 84.01,66.69 84.39,66.47 84.78,66.28 85.17,66.07 85.55,65.85 85.94,65.63 86.33,65.45 86.71,65.29 87.1,65.14 87.48,64.98 87.87,64.82 88.26,64.67 88.64,64.53 89.03,64.39 89.42,64.27 89.8,64.17 90.19,64.07 90.58,63.96 90.96,63.84 91.35,63.73 91.73,63.61 92.12,63.49 92.51,63.4 92.89,63.31 93.28,63.24 93.67,63.16 94.05,63.07 94.44,62.98 94.82,62.91 95.21,62.84 95.6,62.78 95.98,62.72 96.37,62.65 96.76,62.58 97.14,62.53 97.53,62.5 97.92,62.46 98.3,62.41 98.69,62.35 99.07,62.29 99.46,62.25 99.85,62.21 100.23,62.16 100.62,62.1 101.01,62.05 101.39,62.02 101.78,61.98 102.16,61.93 102.55,61.89 102.94,61.86 103.32,61.82 103.71,61.77 104.1,61.73 104.48,61.69 104.87,61.66 105.25,61.64 105.64,61.61 106.03,61.58 106.41,61.55 106.8,61.54 107.19,61.51 107.57,61.49 107.96,61.46 108.35,61.42 108.73,61.38 109.12,61.36 109.5,61.34 109.89,61.32 110.28,61.29 110.66,61.28 111.05,61.26 111.44,61.24 111.82,61.2 112.21,61.15 112.59,61.13 112.98,61.12 113.37,61.12 113.75,61.1 114.14,61.08 114.53,61.06 114.91,61.02 115.3,61 115.68,60.98 116.07,60.97 116.46,60.95 116.84,60.93 117.23,60.92 117.62,60.91 118,60.89 118.39,60.87 118.78,60.85 119.16,60.83 119.55,60.82 119.93,60.81 120.32,60.79 120.71,60.78 121.09,60.77 121.48,60.75 121.87,60.74 122.25,60.72 122.64,60.7 123.02,60.69 123.41,60.68 123.8,60.67 124.18,60.66 124.57,60.64 124.96,60.62 125.34,60.6 125.73,60.6 126.11,60.6 126.5,60.61 126.89,60.6 127.27,60.57 127.66,60.55 128.05,60.54 128.43,60.53 128.82,60.52 129.21,60.52 129.59,60.52 129.98,60.51 130.36,60.5 130.75,60.49 131.14,60.48 131.52,60.47 131.91,60.46 132.3,60.44 132.68,60.42 133.07,60.43 133.45,60.42 133.84,60.41 134.23,60.4 134.61,60.4 135,60.39 135.39,60.38 135.77,60.37 136.16,60.36 136.55,60.36 136.93,60.35 137.32,60.34 137.7,60.33 138.09,60.32 138.48,60.31 138.86,60.31 139.25,60.3 139.64,60.3 140.02,60.29 140.41,60.29 140.79,60.28 141.18,60.27 141.57,60.26 141.95,60.26 142.34,60.26 142.73,60.26 143.11,60.25 143.5,60.24 143.88,60.23 144.27,60.23 144.66,60.23 145.04,60.23 145.43,60.22 145.82,60.21 146.2,60.21 146.59,60.2 146.98,60.18 147.36,60.17 147.75,60.17 148.13,60.16 148.52,60.16 148.91,60.17 149.29,60.16 149.68,60.15 150.07,60.15 150.45,60.14 150.84,60.13 151.22,60.13 151.61,60.13 152,60.13 152.38,60.13 152.77,60.12 153.16,60.12 153.54,60.11 153.93,60.1 154.31,60.09 154.7,60.09 155.09,60.08 155.47,60.09 155.86,60.08 156.25,60.08 156.63,60.07 157.02,60.06 157.41,60.06 157.79,60.06 158.18,60.06 158.56,60.06 158.95,60.06 159.34,60.06 159.72,60.05 160.11,60.05 160.5,60.04 160.88,60.04 161.27,60.04 161.65,60.04 162.04,60.03 162.43,60.03 162.81,60.03 163.2,60.03 163.59,60.03 163.97,60.02 164.36,60.02 164.74,60.02 165.13,60.01 165.52,60 165.9,59.99 166.29,59.99 166.68,59.99 167.06,59.99 167.45,59.99 167.84,59.99 168.22,59.98 168.61,59.98 168.99,59.98 169.38,59.98 169.77,59.98 170.15,59.97 170.54,59.96 170.93,59.96 171.31,59.95 171.7,59.95 172.08,59.95 172.47,59.94 172.86,59.94 173.24,59.94 173.63,59.93 174.02,59.93 174.4,59.94 174.79,59.94 175.18,59.94 175.56,59.94 175.95,59.94 176.33,59.93 176.72,59.93 177.11,59.93 177.49,59.92 177.88,59.92 178.27,59.91 178.65,59.91 179.04,59.9 179.42,59.91 179.81,59.92 180.2,59.92 180.58,59.91 180.97,59.9 181.36,59.9 181.74,59.9 182.13,59.9 182.51,59.9 182.9,59.9 183.29,59.89 183.67,59.89 184.06,59.89 184.45,59.88 184.83,59.88 185.22,59.89 185.61,59.89 185.99,59.89 186.38,59.88 186.76,59.88 187.15,59.88 187.54,59.88 187.92,59.88 188.31,59.88 188.7,59.88 189.08,59.88 189.47,59.87 189.85,59.86 190.24,59.86 190.63,59.86 191.01,59.86 191.4,59.85 191.79,59.85 192.17,59.85 192.56,59.85 192.94,59.85 193.33,59.85 193.72,59.85 194.1,59.84 194.49,59.84 194.88,59.84 195.26,59.83 195.65,59.83 196.04,59.83 196.42,59.83 196.81,59.83 197.19,59.84 197.58,59.84 197.97,59.84 198.35,59.83 198.74,59.83 199.13,59.82 199.51,59.83 199.9,59.83 200.28,59.83 200.67,59.83 201.06,59.83 201.44,59.82 201.83,59.81 202.22,59.81 202.6,59.82 202.99,59.82 203.38,59.82 203.76,59.82 204.15,59.81 204.53,59.81 204.92,59.81 205.31,59.8 205.69,59.8 206.08,59.8 206.47,59.8 206.85,59.8 207.24,59.8 207.62,59.8 208.01,59.81 208.4,59.8 208.78,59.8 209.17,59.8 209.56,59.8 209.94,59.8 210.33,59.8 210.71,59.79 211.1,59.79 211.49,59.78 211.87,59.78 212.26,59.79 212.65,59.79 213.03,59.79 213.42,59.79 213.81,59.78 214.19,59.78 214.58,59.79 214.96,59.79 215.35,59.78 215.74,59.78 216.12,59.78 216.51,59.78 216.9,59.78 217.28,59.78 217.67,59.78 218.05,59.78 218.44,59.77 218.83,59.78 219.21,59.78 219.6,59.78 219.99,59.77 220.37,59.77 220.76,59.77 221.14,59.77 221.53,59.77 221.92,59.77 222.3,59.77 222.69,59.77 223.08,59.77 223.46,59.77 223.85,59.77 224.24,59.77 224.62,59.76 225.01,59.76 225.39,59.76 225.78,59.76 226.17,59.76 226.55,59.76 226.94,59.76 227.33,59.76 227.71,59.76 228.1,59.76 228.48,59.76 228.87,59.76 229.26,59.75 229.64,59.75 230.03,59.75 230.42,59.75 230.8,59.75 231.19,59.75 231.57,59.75 231.96,59.75 232.35,59.75 232.73,59.74 233.12,59.74 233.51,59.74 233.89,59.74 234.28,59.75 234.67,59.75 235.05,59.75 235.44,59.74 235.82,59.75 236.21,59.74 236.6,59.74 236.98,59.74 237.37,59.74 237.76,59.74 238.14,59.74 238.53,59.74 238.91,59.74 239.3,59.74 239.69,59.73 240.07,59.73 240.46,59.73 240.85,59.73 241.23,59.73 241.62,59.73 242.01,59.73 242.39,59.73 242.78,59.73 243.16,59.73 243.55,59.73 243.94,59.73 244.32,59.73 244.71,59.73 245.1,59.73 245.48,59.73 245.87,59.73 246.25,59.73 246.64,59.73 247.03,59.73 247.41,59.73 247.8,59.73 248.19,59.72 248.57,59.72 248.96,59.72 249.34,59.72 249.73,59.72 250.12,59.72 250.5,59.71 250.89,59.71 251.28,59.71 251.66,59.71 252.05,59.72 252.44,59.72 252.82,59.72 253.21,59.71 253.59,59.72 253.98,59.72 254.37,59.72 254.75,59.71 255.14,59.71 255.53,59.71 255.91,59.71 256.3,59.71 256.68,59.71 257.07,59.71 257.46,59.71 257.84,59.71 258.23,59.71 258.62,59.71 259,59.71 259.39,59.71 259.77,59.72 260.16,59.72 260.55,59.71 260.93,59.69 261.32,59.64 261.71,59.61 262.09,59.6" stroke-dasharray="none" stroke="rgb(31,120,180)" stroke-width="0.75" opacity="1" stroke-opacity="1" fill="none"/>
          </g>
          <g id="Fig:densplot_01.xyplot.lines.group.6.panel.1.1.1">
            <polyline id="Fig:densplot_01.xyplot.lines.group.6.panel.1.1.1.1" points="65.1,59.61 65.48,60.05 65.87,65.09 66.25,89.45 66.64,144.67 67.02,202.3 67.41,222.59 67.79,212.08 68.18,191.62 68.56,172.01 68.95,155.38 69.33,141.83 69.72,130.77 70.1,121.59 70.49,113.91 70.87,107.77 71.26,102.5 71.64,97.84 72.03,93.99 72.41,90.64 72.8,87.82 73.18,85.4 73.57,83.28 73.95,81.54 74.34,80 74.72,78.59 75.11,77.36 75.49,76.13 75.88,75.1 76.26,74.28 76.65,73.49 77.03,72.74 77.42,72.1 77.8,71.45 78.19,70.82 78.57,70.19 78.96,69.75 79.34,69.3 79.73,68.84 80.11,68.41 80.5,68.01 80.88,67.65 81.27,67.36 81.65,67.06 82.04,66.73 82.42,66.45 82.81,66.19 83.19,65.96 83.58,65.77 83.96,65.54 84.35,65.36 84.73,65.14 85.12,64.96 85.5,64.78 85.89,64.61 86.27,64.47 86.66,64.3 87.04,64.14 87.42,64.04 87.81,63.9 88.19,63.76 88.58,63.64 88.96,63.57 89.35,63.46 89.73,63.33 90.12,63.22 90.5,63.15 90.89,63.07 91.27,62.97 91.66,62.89 92.04,62.82 92.43,62.73 92.81,62.63 93.2,62.55 93.58,62.47 93.97,62.42 94.35,62.36 94.74,62.31 95.12,62.24 95.51,62.18 95.89,62.15 96.28,62.11 96.66,62.04 97.05,61.97 97.43,61.93 97.82,61.89 98.2,61.86 98.59,61.82 98.97,61.78 99.36,61.72 99.74,61.67 100.13,61.62 100.51,61.58 100.9,61.54 101.28,61.51 101.67,61.49 102.05,61.47 102.44,61.44 102.82,61.4 103.21,61.36 103.59,61.34 103.98,61.29 104.36,61.24 104.75,61.22 105.13,61.19 105.52,61.17 105.9,61.14 106.29,61.12 106.67,61.11 107.06,61.08 107.44,61.05 107.83,61.02 108.21,61 108.6,60.97 108.98,60.95 109.37,60.92 109.75,60.9 110.14,60.89 110.52,60.9 110.91,60.88 111.29,60.86 111.68,60.85 112.06,60.83 112.45,60.8 112.83,60.78 113.22,60.76 113.6,60.75 113.99,60.72 114.37,60.72 114.76,60.7 115.14,60.68 115.53,60.68 115.91,60.66 116.3,60.63 116.68,60.62 117.07,60.6 117.45,60.59 117.84,60.58 118.22,60.58 118.61,60.56 118.99,60.54 119.38,60.52 119.76,60.5 120.15,60.49 120.53,60.49 120.92,60.47 121.3,60.48 121.69,60.47 122.07,60.46 122.46,60.44 122.84,60.43 123.23,60.42 123.61,60.41 124,60.4 124.38,60.38 124.77,60.38 125.15,60.38 125.54,60.36 125.92,60.35 126.31,60.34 126.69,60.32 127.08,60.32 127.46,60.32 127.85,60.33 128.23,60.31 128.62,60.3 129,60.29 129.39,60.28 129.77,60.28 130.16,60.27 130.54,60.26 130.93,60.26 131.31,60.25 131.7,60.23 132.08,60.23 132.47,60.23 132.85,60.21 133.24,60.2 133.62,60.2 134.01,60.2 134.39,60.19 134.78,60.18 135.16,60.18 135.55,60.17 135.93,60.17 136.32,60.17 136.7,60.16 137.09,60.15 137.47,60.14 137.86,60.14 138.24,60.14 138.63,60.14 139.01,60.13 139.4,60.12 139.78,60.11 140.17,60.11 140.55,60.11 140.94,60.1 141.32,60.09 141.71,60.09 142.09,60.08 142.48,60.07 142.86,60.06 143.25,60.06 143.63,60.06 144.02,60.05 144.4,60.05 144.79,60.05 145.17,60.04 145.56,60.04 145.94,60.03 146.33,60.03 146.71,60.04 147.1,60.03 147.48,60.03 147.87,60.02 148.25,60.02 148.64,60.02 149.02,60.01 149.41,60.01 149.79,60.02 150.18,60.01 150.56,60 150.95,60 151.33,59.99 151.72,59.98 152.1,59.98 152.49,59.98 152.87,59.98 153.26,59.97 153.64,59.97 154.03,59.97 154.41,59.97 154.8,59.97 155.18,59.97 155.57,59.96 155.95,59.94 156.34,59.94 156.72,59.94 157.11,59.94 157.49,59.93 157.88,59.93 158.26,59.92 158.65,59.92 159.03,59.93 159.42,59.93 159.8,59.91 160.19,59.91 160.57,59.92 160.96,59.91 161.34,59.91 161.73,59.9 162.11,59.9 162.5,59.9 162.88,59.9 163.27,59.89 163.65,59.89 164.04,59.89 164.42,59.9 164.81,59.89 165.19,59.88 165.58,59.88 165.96,59.9 166.35,59.9 166.73,59.89 167.12,59.88 167.5,59.88 167.89,59.88 168.27,59.88 168.66,59.88 169.04,59.87 169.43,59.86 169.81,59.86 170.2,59.86 170.58,59.87 170.97,59.86 171.35,59.85 171.74,59.86 172.12,59.86 172.51,59.85 172.89,59.85 173.28,59.84 173.66,59.84 174.05,59.85 174.43,59.84 174.82,59.84 175.2,59.84 175.58,59.84 175.97,59.83 176.35,59.83 176.74,59.83 177.12,59.83 177.51,59.83 177.89,59.83 178.28,59.83 178.66,59.83 179.05,59.83 179.43,59.83 179.82,59.82 180.2,59.82 180.59,59.82 180.97,59.82 181.36,59.81 181.74,59.81 182.13,59.82 182.51,59.82 182.9,59.81 183.28,59.81 183.67,59.8 184.05,59.81 184.44,59.81 184.82,59.8 185.21,59.8 185.59,59.81 185.98,59.81 186.36,59.8 186.75,59.8 187.13,59.8 187.52,59.79 187.9,59.8 188.29,59.79 188.67,59.79 189.06,59.79 189.44,59.79 189.83,59.79 190.21,59.78 190.6,59.77 190.98,59.78 191.37,59.79 191.75,59.79 192.14,59.78 192.52,59.78 192.91,59.78 193.29,59.78 193.68,59.78 194.06,59.78 194.45,59.78 194.83,59.78 195.22,59.77 195.6,59.77 195.99,59.77 196.37,59.76 196.76,59.76 197.14,59.75 197.53,59.75 197.91,59.76 198.3,59.77 198.68,59.77 199.07,59.76 199.45,59.76 199.84,59.76 200.22,59.76 200.61,59.76 200.99,59.76 201.38,59.76 201.76,59.76 202.15,59.76 202.53,59.75 202.92,59.75 203.3,59.75 203.69,59.75 204.07,59.75 204.46,59.74 204.84,59.74 205.23,59.74 205.61,59.75 206,59.74 206.38,59.74 206.77,59.74 207.15,59.75 207.54,59.74 207.92,59.75 208.31,59.74 208.69,59.74 209.08,59.74 209.46,59.74 209.85,59.74 210.23,59.74 210.62,59.74 211,59.74 211.39,59.74 211.77,59.74 212.16,59.74 212.54,59.73 212.93,59.73 213.31,59.73 213.7,59.73 214.08,59.73 214.47,59.74 214.85,59.73 215.24,59.73 215.62,59.73 216.01,59.73 216.39,59.73 216.78,59.73 217.16,59.73 217.55,59.73 217.93,59.72 218.32,59.72 218.7,59.72 219.09,59.72 219.47,59.72 219.86,59.71 220.24,59.71 220.63,59.72 221.01,59.72 221.4,59.72 221.78,59.72 222.17,59.71 222.55,59.71 222.94,59.71 223.32,59.72 223.71,59.72 224.09,59.72 224.48,59.72 224.86,59.71 225.25,59.71 225.63,59.71 226.02,59.71 226.4,59.71 226.79,59.71 227.17,59.71 227.56,59.71 227.94,59.71 228.33,59.71 228.71,59.71 229.1,59.7 229.48,59.71 229.87,59.7 230.25,59.7 230.64,59.7 231.02,59.7 231.41,59.7 231.79,59.7 232.18,59.7 232.56,59.7 232.95,59.7 233.33,59.71 233.72,59.7 234.1,59.7 234.49,59.7 234.87,59.7 235.26,59.7 235.64,59.7 236.03,59.7 236.41,59.7 236.8,59.7 237.18,59.7 237.57,59.7 237.95,59.7 238.34,59.7 238.72,59.7 239.11,59.7 239.49,59.7 239.88,59.7 240.26,59.7 240.65,59.69 241.03,59.69 241.42,59.69 241.8,59.69 242.19,59.69 242.57,59.69 242.96,59.69 243.34,59.69 243.73,59.69 244.11,59.69 244.5,59.69 244.88,59.69 245.27,59.69 245.65,59.69 246.04,59.68 246.42,59.68 246.81,59.68 247.19,59.68 247.58,59.69 247.96,59.69 248.35,59.69 248.73,59.68 249.12,59.69 249.5,59.68 249.89,59.68 250.27,59.68 250.66,59.68 251.04,59.69 251.43,59.69 251.81,59.69 252.2,59.68 252.58,59.68 252.97,59.68 253.35,59.68 253.74,59.68 254.12,59.68 254.51,59.68 254.89,59.68 255.28,59.68 255.66,59.68 256.05,59.68 256.43,59.68 256.82,59.68 257.2,59.68 257.59,59.67 257.97,59.68 258.36,59.68 258.74,59.68 259.13,59.68 259.51,59.67 259.9,59.67 260.28,59.68 260.67,59.67 261.05,59.65 261.44,59.61 261.82,59.6" stroke-dasharray="none" stroke="rgb(31,120,180)" stroke-width="0.75" opacity="1" stroke-opacity="1" fill="none"/>
          </g>
          <g id="Fig:densplot_01.xyplot.lines.group.7.panel.1.1.1">
            <polyline id="Fig:densplot_01.xyplot.lines.group.7.panel.1.1.1.1" points="64.84,59.6 65.23,59.84 65.61,63.41 66,82.75 66.38,129.03 66.77,180.13 67.16,204.03 67.54,199.99 67.93,184.23 68.31,167.37 68.7,152.73 69.08,140.53 69.47,130.43 69.86,121.97 70.24,114.82 70.63,108.9 71.01,103.94 71.4,99.65 71.78,95.99 72.17,92.82 72.56,89.96 72.94,87.45 73.33,85.33 73.71,83.55 74.1,82 74.48,80.54 74.87,79.25 75.26,78.09 75.64,76.95 76.03,75.92 76.41,75.04 76.8,74.26 77.18,73.59 77.57,72.92 77.96,72.25 78.34,71.64 78.73,71.07 79.11,70.55 79.5,70.08 79.88,69.63 80.27,69.21 80.66,68.79 81.04,68.36 81.43,68.01 81.81,67.67 82.2,67.35 82.58,67.09 82.97,66.86 83.36,66.6 83.74,66.33 84.13,66.09 84.51,65.87 84.9,65.66 85.28,65.49 85.67,65.31 86.06,65.15 86.44,64.96 86.83,64.78 87.21,64.63 87.6,64.48 87.98,64.36 88.37,64.22 88.76,64.09 89.14,63.95 89.53,63.8 89.91,63.68 90.3,63.58 90.68,63.48 91.07,63.4 91.46,63.3 91.84,63.18 92.23,63.09 92.61,63.02 93,62.95 93.38,62.87 93.77,62.79 94.16,62.73 94.54,62.65 94.93,62.56 95.31,62.49 95.7,62.42 96.08,62.36 96.47,62.3 96.86,62.25 97.24,62.21 97.63,62.15 98.01,62.1 98.4,62.04 98.78,61.98 99.17,61.94 99.56,61.91 99.94,61.88 100.33,61.83 100.71,61.78 101.1,61.73 101.48,61.69 101.87,61.65 102.26,61.61 102.64,61.58 103.03,61.55 103.41,61.5 103.8,61.47 104.18,61.45 104.57,61.42 104.96,61.38 105.34,61.33 105.73,61.29 106.11,61.26 106.5,61.24 106.88,61.21 107.27,61.19 107.66,61.17 108.04,61.15 108.43,61.12 108.81,61.09 109.2,61.07 109.58,61.06 109.97,61.04 110.36,61.01 110.74,60.98 111.13,60.96 111.51,60.93 111.9,60.92 112.28,60.9 112.67,60.87 113.06,60.85 113.44,60.84 113.83,60.83 114.21,60.81 114.6,60.79 114.98,60.77 115.37,60.75 115.76,60.74 116.14,60.74 116.53,60.72 116.91,60.7 117.3,60.68 117.68,60.66 118.07,60.65 118.46,60.64 118.84,60.63 119.23,60.61 119.61,60.6 120,60.6 120.38,60.59 120.77,60.58 121.16,60.57 121.54,60.53 121.93,60.51 122.31,60.5 122.7,60.5 123.09,60.49 123.47,60.47 123.86,60.46 124.24,60.44 124.63,60.44 125.01,60.43 125.4,60.44 125.79,60.41 126.17,60.4 126.56,60.39 126.94,60.39 127.33,60.38 127.71,60.35 128.1,60.34 128.49,60.34 128.87,60.33 129.26,60.33 129.64,60.32 130.03,60.3 130.41,60.29 130.8,60.28 131.19,60.29 131.57,60.28 131.96,60.27 132.34,60.26 132.73,60.26 133.11,60.27 133.5,60.26 133.89,60.26 134.27,60.24 134.66,60.22 135.04,60.22 135.43,60.2 135.81,60.19 136.2,60.19 136.59,60.19 136.97,60.19 137.36,60.19 137.74,60.18 138.13,60.17 138.51,60.17 138.9,60.16 139.29,60.15 139.67,60.14 140.06,60.14 140.44,60.14 140.83,60.13 141.21,60.12 141.6,60.11 141.99,60.11 142.37,60.11 142.76,60.1 143.14,60.1 143.53,60.09 143.91,60.09 144.3,60.08 144.69,60.08 145.07,60.08 145.46,60.07 145.84,60.07 146.23,60.06 146.61,60.06 147,60.06 147.39,60.05 147.77,60.05 148.16,60.05 148.54,60.05 148.93,60.04 149.31,60.04 149.7,60.03 150.09,60.03 150.47,60.03 150.86,60.01 151.24,60 151.63,60 152.01,60.01 152.4,60 152.79,60 153.17,60 153.56,60 153.94,59.99 154.33,59.99 154.71,59.98 155.1,59.98 155.49,59.97 155.87,59.97 156.26,59.97 156.64,59.97 157.03,59.96 157.41,59.96 157.8,59.96 158.19,59.95 158.57,59.95 158.96,59.94 159.34,59.95 159.73,59.94 160.11,59.93 160.5,59.92 160.89,59.93 161.27,59.93 161.66,59.94 162.04,59.93 162.43,59.92 162.81,59.91 163.2,59.91 163.59,59.91 163.97,59.91 164.36,59.91 164.74,59.9 165.13,59.9 165.51,59.9 165.9,59.89 166.29,59.9 166.67,59.9 167.06,59.89 167.44,59.89 167.83,59.89 168.21,59.89 168.6,59.89 168.99,59.88 169.37,59.88 169.76,59.88 170.14,59.88 170.53,59.88 170.91,59.88 171.3,59.87 171.69,59.87 172.07,59.86 172.46,59.87 172.84,59.88 173.23,59.87 173.61,59.87 174,59.86 174.39,59.86 174.77,59.86 175.16,59.85 175.54,59.85 175.93,59.84 176.31,59.84 176.7,59.84 177.09,59.84 177.47,59.85 177.86,59.84 178.24,59.84 178.63,59.84 179.01,59.84 179.4,59.84 179.79,59.84 180.17,59.83 180.56,59.83 180.94,59.83 181.33,59.83 181.71,59.83 182.1,59.83 182.49,59.82 182.87,59.83 183.26,59.83 183.64,59.82 184.03,59.83 184.41,59.83 184.8,59.82 185.19,59.82 185.57,59.81 185.96,59.81 186.34,59.81 186.73,59.81 187.11,59.81 187.5,59.81 187.89,59.81 188.27,59.81 188.66,59.81 189.04,59.8 189.43,59.81 189.81,59.81 190.2,59.8 190.59,59.8 190.97,59.79 191.36,59.79 191.74,59.79 192.13,59.79 192.51,59.79 192.9,59.79 193.29,59.79 193.67,59.79 194.06,59.79 194.44,59.79 194.83,59.78 195.21,59.78 195.6,59.79 195.99,59.78 196.37,59.78 196.76,59.78 197.14,59.78 197.53,59.78 197.92,59.78 198.3,59.78 198.69,59.78 199.07,59.78 199.46,59.77 199.84,59.77 200.23,59.77 200.62,59.78 201,59.77 201.39,59.77 201.77,59.76 202.16,59.76 202.54,59.76 202.93,59.76 203.32,59.76 203.7,59.76 204.09,59.75 204.47,59.75 204.86,59.76 205.24,59.76 205.63,59.75 206.02,59.75 206.4,59.76 206.79,59.75 207.17,59.75 207.56,59.75 207.94,59.75 208.33,59.75 208.72,59.75 209.1,59.75 209.49,59.75 209.87,59.75 210.26,59.75 210.64,59.75 211.03,59.74 211.42,59.75 211.8,59.75 212.19,59.75 212.57,59.74 212.96,59.74 213.34,59.74 213.73,59.74 214.12,59.74 214.5,59.74 214.89,59.74 215.27,59.74 215.66,59.74 216.04,59.74 216.43,59.74 216.82,59.74 217.2,59.73 217.59,59.73 217.97,59.73 218.36,59.73 218.74,59.73 219.13,59.73 219.52,59.73 219.9,59.73 220.29,59.73 220.67,59.73 221.06,59.73 221.44,59.73 221.83,59.73 222.22,59.73 222.6,59.73 222.99,59.73 223.37,59.73 223.76,59.72 224.14,59.72 224.53,59.73 224.92,59.73 225.3,59.73 225.69,59.72 226.07,59.72 226.46,59.72 226.84,59.72 227.23,59.72 227.62,59.72 228,59.71 228.39,59.71 228.77,59.71 229.16,59.71 229.54,59.71 229.93,59.71 230.32,59.71 230.7,59.71 231.09,59.72 231.47,59.72 231.86,59.71 232.24,59.71 232.63,59.71 233.02,59.71 233.4,59.71 233.79,59.71 234.17,59.71 234.56,59.71 234.94,59.7 235.33,59.7 235.72,59.71 236.1,59.71 236.49,59.71 236.87,59.7 237.26,59.7 237.64,59.7 238.03,59.7 238.42,59.7 238.8,59.7 239.19,59.7 239.57,59.7 239.96,59.7 240.34,59.71 240.73,59.71 241.12,59.71 241.5,59.7 241.89,59.7 242.27,59.7 242.66,59.7 243.04,59.7 243.43,59.69 243.82,59.69 244.2,59.69 244.59,59.69 244.97,59.69 245.36,59.69 245.74,59.69 246.13,59.7 246.52,59.7 246.9,59.7 247.29,59.7 247.67,59.7 248.06,59.69 248.44,59.69 248.83,59.69 249.22,59.69 249.6,59.69 249.99,59.69 250.37,59.69 250.76,59.7 251.14,59.69 251.53,59.69 251.92,59.69 252.3,59.69 252.69,59.69 253.07,59.69 253.46,59.69 253.84,59.69 254.23,59.68 254.62,59.68 255,59.68 255.39,59.68 255.77,59.68 256.16,59.68 256.54,59.68 256.93,59.69 257.32,59.68 257.7,59.68 258.09,59.68 258.47,59.69 258.86,59.68 259.24,59.68 259.63,59.68 260.02,59.68 260.4,59.68 260.79,59.67 261.17,59.64 261.56,59.61 261.94,59.6" stroke-dasharray="none" stroke="rgb(31,120,180)" stroke-width="0.75" opacity="1" stroke-opacity="1" fill="none"/>
          </g>
          <g id="Fig:densplot_01.xyplot.lines.group.8.panel.1.1.1">
            <polyline id="Fig:densplot_01.xyplot.lines.group.8.panel.1.1.1.1" points="64.98,59.6 65.37,59.7 65.75,61.52 66.14,73.36 66.52,107.93 66.91,156.78 67.3,191.58 67.68,200.29 68.07,191.41 68.45,176.56 68.84,161.69 69.22,148.57 69.61,137.35 69.99,127.71 70.38,119.56 70.76,112.82 71.15,107.07 71.53,102.05 71.92,97.8 72.31,94.13 72.69,90.92 73.08,88.19 73.46,85.86 73.85,83.89 74.23,82.16 74.62,80.57 75,79.16 75.39,77.87 75.77,76.71 76.16,75.73 76.55,74.86 76.93,74.02 77.32,73.26 77.7,72.54 78.09,71.89 78.47,71.32 78.86,70.77 79.24,70.25 79.63,69.74 80.01,69.27 80.4,68.87 80.79,68.49 81.17,68.1 81.56,67.76 81.94,67.47 82.33,67.17 82.71,66.89 83.1,66.64 83.48,66.38 83.87,66.11 84.25,65.86 84.64,65.68 85.02,65.52 85.41,65.32 85.8,65.11 86.18,64.94 86.57,64.78 86.95,64.63 87.34,64.5 87.72,64.38 88.11,64.23 88.49,64.11 88.88,64 89.26,63.86 89.65,63.72 90.04,63.61 90.42,63.54 90.81,63.43 91.19,63.33 91.58,63.24 91.96,63.16 92.35,63.07 92.73,62.98 93.12,62.87 93.5,62.79 93.89,62.72 94.27,62.64 94.66,62.58 95.05,62.53 95.43,62.48 95.82,62.42 96.2,62.38 96.59,62.33 96.97,62.25 97.36,62.21 97.74,62.17 98.13,62.1 98.51,62.04 98.9,62 99.29,61.98 99.67,61.93 100.06,61.89 100.44,61.83 100.83,61.8 101.21,61.77 101.6,61.73 101.98,61.69 102.37,61.67 102.75,61.63 103.14,61.58 103.52,61.54 103.91,61.51 104.3,61.47 104.68,61.42 105.07,61.4 105.45,61.4 105.84,61.39 106.22,61.35 106.61,61.3 106.99,61.26 107.38,61.23 107.76,61.21 108.15,61.2 108.54,61.19 108.92,61.16 109.31,61.13 109.69,61.1 110.08,61.08 110.46,61.06 110.85,61.05 111.23,61.03 111.62,61 112,60.98 112.39,60.97 112.78,60.95 113.16,60.93 113.55,60.92 113.93,60.9 114.32,60.87 114.7,60.84 115.09,60.82 115.47,60.8 115.86,60.79 116.24,60.79 116.63,60.78 117.01,60.77 117.4,60.76 117.79,60.74 118.17,60.71 118.56,60.69 118.94,60.68 119.33,60.67 119.71,60.65 120.1,60.65 120.48,60.63 120.87,60.61 121.25,60.6 121.64,60.58 122.03,60.57 122.41,60.58 122.8,60.56 123.18,60.54 123.57,60.53 123.95,60.51 124.34,60.5 124.72,60.49 125.11,60.48 125.49,60.49 125.88,60.49 126.26,60.47 126.65,60.46 127.04,60.44 127.42,60.42 127.81,60.41 128.19,60.4 128.58,60.4 128.96,60.38 129.35,60.38 129.73,60.38 130.12,60.37 130.5,60.36 130.89,60.34 131.28,60.34 131.66,60.33 132.05,60.33 132.43,60.32 132.82,60.31 133.2,60.31 133.59,60.31 133.97,60.29 134.36,60.27 134.74,60.27 135.13,60.27 135.52,60.27 135.9,60.25 136.29,60.25 136.67,60.24 137.06,60.24 137.44,60.23 137.83,60.22 138.21,60.22 138.6,60.21 138.98,60.2 139.37,60.19 139.75,60.2 140.14,60.2 140.53,60.19 140.91,60.18 141.3,60.18 141.68,60.17 142.07,60.16 142.45,60.16 142.84,60.15 143.22,60.14 143.61,60.14 143.99,60.14 144.38,60.14 144.77,60.14 145.15,60.13 145.54,60.13 145.92,60.12 146.31,60.11 146.69,60.11 147.08,60.11 147.46,60.1 147.85,60.09 148.23,60.09 148.62,60.08 149,60.07 149.39,60.06 149.78,60.06 150.16,60.07 150.55,60.07 150.93,60.07 151.32,60.06 151.7,60.06 152.09,60.05 152.47,60.04 152.86,60.04 153.24,60.04 153.63,60.04 154.02,60.03 154.4,60.02 154.79,60.02 155.17,60.02 155.56,60.02 155.94,60.02 156.33,60.01 156.71,60.01 157.1,60.01 157.48,60 157.87,60 158.25,59.99 158.64,59.99 159.03,59.99 159.41,60 159.8,60 160.18,59.99 160.57,59.98 160.95,59.97 161.34,59.95 161.72,59.95 162.11,59.96 162.49,59.96 162.88,59.95 163.27,59.95 163.65,59.96 164.04,59.95 164.42,59.95 164.81,59.94 165.19,59.94 165.58,59.94 165.96,59.93 166.35,59.92 166.73,59.92 167.12,59.92 167.51,59.92 167.89,59.91 168.28,59.92 168.66,59.92 169.05,59.91 169.43,59.92 169.82,59.92 170.2,59.92 170.59,59.92 170.97,59.92 171.36,59.92 171.74,59.91 172.13,59.9 172.52,59.89 172.9,59.89 173.29,59.89 173.67,59.88 174.06,59.88 174.44,59.89 174.83,59.89 175.21,59.88 175.6,59.88 175.98,59.88 176.37,59.88 176.76,59.88 177.14,59.88 177.53,59.88 177.91,59.87 178.3,59.87 178.68,59.87 179.07,59.87 179.45,59.86 179.84,59.86 180.22,59.86 180.61,59.86 180.99,59.86 181.38,59.86 181.77,59.86 182.15,59.86 182.54,59.85 182.92,59.85 183.31,59.85 183.69,59.85 184.08,59.84 184.46,59.84 184.85,59.84 185.23,59.84 185.62,59.83 186.01,59.83 186.39,59.83 186.78,59.83 187.16,59.83 187.55,59.82 187.93,59.82 188.32,59.82 188.7,59.82 189.09,59.82 189.47,59.82 189.86,59.82 190.24,59.82 190.63,59.82 191.02,59.81 191.4,59.81 191.79,59.81 192.17,59.82 192.56,59.82 192.94,59.82 193.33,59.81 193.71,59.81 194.1,59.8 194.48,59.81 194.87,59.81 195.26,59.81 195.64,59.8 196.03,59.8 196.41,59.8 196.8,59.79 197.18,59.79 197.57,59.79 197.95,59.79 198.34,59.8 198.72,59.8 199.11,59.8 199.5,59.8 199.88,59.8 200.27,59.79 200.65,59.79 201.04,59.79 201.42,59.79 201.81,59.79 202.19,59.79 202.58,59.79 202.96,59.79 203.35,59.79 203.73,59.79 204.12,59.78 204.51,59.78 204.89,59.78 205.28,59.77 205.66,59.77 206.05,59.77 206.43,59.77 206.82,59.77 207.2,59.77 207.59,59.77 207.97,59.78 208.36,59.77 208.75,59.77 209.13,59.76 209.52,59.76 209.9,59.76 210.29,59.76 210.67,59.76 211.06,59.76 211.44,59.76 211.83,59.76 212.21,59.76 212.6,59.76 212.98,59.75 213.37,59.75 213.76,59.75 214.14,59.76 214.53,59.75 214.91,59.75 215.3,59.76 215.68,59.75 216.07,59.75 216.45,59.75 216.84,59.75 217.22,59.75 217.61,59.75 218,59.74 218.38,59.74 218.77,59.74 219.15,59.74 219.54,59.74 219.92,59.74 220.31,59.74 220.69,59.74 221.08,59.75 221.46,59.74 221.85,59.74 222.24,59.74 222.62,59.74 223.01,59.74 223.39,59.74 223.78,59.74 224.16,59.74 224.55,59.74 224.93,59.73 225.32,59.73 225.7,59.73 226.09,59.73 226.47,59.73 226.86,59.73 227.25,59.73 227.63,59.73 228.02,59.73 228.4,59.73 228.79,59.73 229.17,59.72 229.56,59.73 229.94,59.73 230.33,59.73 230.71,59.72 231.1,59.72 231.49,59.72 231.87,59.72 232.26,59.73 232.64,59.73 233.03,59.72 233.41,59.73 233.8,59.72 234.18,59.72 234.57,59.72 234.95,59.72 235.34,59.72 235.72,59.71 236.11,59.71 236.5,59.72 236.88,59.72 237.27,59.71 237.65,59.71 238.04,59.72 238.42,59.71 238.81,59.71 239.19,59.71 239.58,59.7 239.96,59.71 240.35,59.71 240.74,59.71 241.12,59.71 241.51,59.71 241.89,59.71 242.28,59.7 242.66,59.71 243.05,59.71 243.43,59.71 243.82,59.71 244.2,59.71 244.59,59.71 244.97,59.71 245.36,59.71 245.75,59.71 246.13,59.71 246.52,59.71 246.9,59.71 247.29,59.7 247.67,59.7 248.06,59.71 248.44,59.71 248.83,59.71 249.21,59.7 249.6,59.7 249.99,59.7 250.37,59.7 250.76,59.7 251.14,59.7 251.53,59.7 251.91,59.7 252.3,59.7 252.68,59.7 253.07,59.7 253.45,59.7 253.84,59.69 254.23,59.69 254.61,59.7 255,59.7 255.38,59.7 255.77,59.69 256.15,59.69 256.54,59.69 256.92,59.69 257.31,59.69 257.69,59.69 258.08,59.69 258.46,59.69 258.85,59.69 259.24,59.69 259.62,59.69 260.01,59.69 260.39,59.68 260.78,59.67 261.16,59.65 261.55,59.61 261.93,59.6" stroke-dasharray="none" stroke="rgb(31,120,180)" stroke-width="0.75" opacity="1" stroke-opacity="1" fill="none"/>
          </g>
        </g>
        <g id="Fig:densplot_01.panel.1.1.off.vp.2">
          <g id="Fig:densplot_01.border.panel.1.1.1">
            <rect id="Fig:densplot_01.border.panel.1.1.1.1" x="50.8" y="48.19" width="225.2" height="185.81" transform="" stroke="rgb(0,0,0)" stroke-dasharray="none" stroke-width="0.75" opacity="1" fill="none" stroke-opacity="1" fill-opacity="0"/>
          </g>
        </g>
        <g id="Fig:densplot_01..1"/>
      </g>
    </g>
  </g>
</svg>